<svg width="29" height="23" viewBox="0 0 29 23" fill="none" xmlns="http://www.w3.org/2000/svg">
<path d="M25.4991 22.5002H3.49915C2.7698 22.5002 2.07033 22.2105 1.5546 21.6948C1.03888 21.1791 0.749146 20.4796 0.749146 19.7502V3.13062C0.77999 2.42221 1.08328 1.75309 1.5957 1.26296C2.10812 0.772828 2.79006 0.499574 3.49915 0.500245H25.4991C26.2285 0.500245 26.928 0.789977 27.4437 1.3057C27.9594 1.82143 28.2491 2.5209 28.2491 3.25025V19.7502C28.2491 20.4796 27.9594 21.1791 27.4437 21.6948C26.928 22.2105 26.2285 22.5002 25.4991 22.5002ZM3.49915 5.81875V19.7502H25.4991V5.81875L14.4991 13.1502L3.49915 5.81875ZM4.59915 3.25025L14.4991 9.85025L24.3991 3.25025H4.59915Z" fill="#2286C3"/>
</svg>
