<svg width="23" height="29" viewBox="0 0 23 29" fill="none" xmlns="http://www.w3.org/2000/svg">
<path d="M11.3816 21.8069C10.6491 21.8069 9.9466 21.527 9.42864 21.0287C8.91068 20.5304 8.6197 19.8545 8.6197 19.1498C8.6197 17.6751 9.84875 16.4927 11.3816 16.4927C12.1141 16.4927 12.8166 16.7726 13.3346 17.2709C13.8525 17.7692 14.1435 18.4451 14.1435 19.1498C14.1435 19.8545 13.8525 20.5304 13.3346 21.0287C12.8166 21.527 12.1141 21.8069 11.3816 21.8069ZM19.6673 25.7927V12.5069H3.09589V25.7927H19.6673ZM19.6673 9.8498C20.3998 9.8498 21.1023 10.1298 21.6203 10.6281C22.1382 11.1264 22.4292 11.8022 22.4292 12.5069V25.7927C22.4292 26.4974 22.1382 27.1732 21.6203 27.6715C21.1023 28.1699 20.3998 28.4498 19.6673 28.4498H3.09589C2.36339 28.4498 1.66088 28.1699 1.14293 27.6715C0.62497 27.1732 0.333984 26.4974 0.333984 25.7927V12.5069C0.333984 11.0322 1.56303 9.8498 3.09589 9.8498H4.47684V7.19266C4.47684 5.43087 5.20431 3.74123 6.4992 2.49545C7.79409 1.24968 9.55035 0.549805 11.3816 0.549805C12.2883 0.549805 13.1862 0.721627 14.0239 1.05546C14.8617 1.3893 15.6228 1.87861 16.264 2.49545C16.9052 3.1123 17.4138 3.8446 17.7608 4.65055C18.1078 5.4565 18.2864 6.32031 18.2864 7.19266V9.8498H19.6673ZM11.3816 3.20695C10.2828 3.20695 9.2291 3.62687 8.45216 4.37434C7.67522 5.1218 7.23875 6.13558 7.23875 7.19266V9.8498H15.5245V7.19266C15.5245 6.13558 15.088 5.1218 14.311 4.37434C13.5341 3.62687 12.4804 3.20695 11.3816 3.20695Z" fill="#2286C3"/>
</svg>
