<svg width="51" height="40" viewBox="0 0 51 40" fill="none" xmlns="http://www.w3.org/2000/svg">
<path d="M51 4.74473C49.1245 5.54653 47.1098 6.08828 44.9917 6.33316C47.1771 5.0715 48.8122 3.0858 49.5917 0.746578C47.5384 1.92325 45.2912 2.7515 42.9477 3.19531C41.3718 1.57192 39.2845 0.495911 37.0098 0.134339C34.7351 -0.227233 32.4002 0.145862 30.3678 1.1957C28.3354 2.24554 26.7191 3.91338 25.7699 5.94028C24.8206 7.96719 24.5915 10.2398 25.1182 12.4051C20.9577 12.2036 16.8876 11.1603 13.1721 9.34294C9.45659 7.52558 6.17867 4.97478 3.55109 1.85609C2.65265 3.35134 2.13604 5.08495 2.13604 6.93125C2.13504 8.59335 2.55928 10.23 3.37113 11.696C4.18297 13.1619 5.35732 14.4119 6.78997 15.335C5.12847 15.284 3.50363 14.8508 2.05069 14.0716V14.2016C2.05052 16.5328 2.88632 18.7922 4.41625 20.5965C5.94618 22.4008 8.07602 23.6388 10.4444 24.1006C8.90306 24.503 7.28711 24.5623 5.71858 24.2739C6.38679 26.2797 7.6884 28.0338 9.44119 29.2904C11.194 30.5471 13.3102 31.2434 15.4936 31.2821C11.7872 34.0892 7.20974 35.612 2.49767 35.6053C1.66297 35.6055 0.828983 35.5585 0 35.4644C4.78302 38.4314 10.3508 40.0061 16.0372 40C35.2863 40 45.8093 24.6185 45.8093 11.2783C45.8093 10.8449 45.798 10.4072 45.7778 9.97375C47.8247 8.54563 49.5915 6.77717 50.9955 4.75123L51 4.74473Z" fill="white"/>
</svg>
